<svg width="171" height="48" viewBox="0 0 171 48" fill="none" xmlns="http://www.w3.org/2000/svg">
<g clip-path="url(#clip0_263_2509)">
<path d="M23.6222 47.25C10.6 47.25 0 36.817 0 24C0 11.183 10.6 0.75 23.6222 0.75C36.6444 0.75 47.2444 11.183 47.2444 24C47.2444 36.817 36.6444 47.25 23.6222 47.25ZM23.5333 14.8356C23.5667 14.8356 25.4556 16.826 25.4556 18.4226C25.4556 20.1505 24.0889 20.5552 23.6222 20.5552C23.6 20.5552 23.5667 20.5552 23.5444 20.5552H23.5222C23.4889 20.5552 23.4667 20.5552 23.4444 20.5552C22.9889 20.5552 21.6111 20.1396 21.6111 18.4226C21.6111 16.826 23.5 14.8356 23.5333 14.8356ZM5.74444 25.2905H7.9V21.3754H11.5222V19.7349H7.9V17.5587H11.6444V15.9183H5.74444V25.2905ZM25.4889 15.1199H27.7667L25.1222 5.74777H22.2222L19.4889 15.1199H21.5889L22.1889 13.0202H24.9444L25.4889 15.1199ZM24.5444 11.4345H22.5556L23.4778 7.35536H23.6333L24.5444 11.4345ZM34.5222 20.6098C34.5222 23.3657 35.8222 25.4545 38.5556 25.4545C41.3 25.4545 42.6111 23.3657 42.6111 20.6098C42.6111 17.854 41.3 15.7652 38.5556 15.7652C35.8222 15.7652 34.5222 17.854 34.5222 20.6098ZM36.8111 20.6098C36.8111 18.8163 37.2556 17.3509 38.5556 17.3509C39.8556 17.3509 40.3222 18.8163 40.3222 20.6098C40.3222 22.4143 39.8556 23.8688 38.5556 23.8688C37.2667 23.8688 36.8111 22.4033 36.8111 20.6098ZM22.6111 44.6582C22.7333 43.7505 22.8667 42.296 22.8667 40.59C22.8667 40.1197 22.8667 40.4369 22.8667 40.3056C22.8667 37.9106 22.7778 37.0904 21.1444 36.5655C18.6333 35.7453 17.6 32.9894 18.1556 29.5446L9.74445 8.48177C5.36667 12.2766 2.61111 17.8211 2.61111 24C2.61111 35.0782 11.5 44.1442 22.6111 44.6582ZM23.6111 31.2287C20.2667 30.4632 19.0222 27.4558 19.0222 24.7983L11.6556 7.00541C11.1778 7.33349 10.7111 7.68344 10.2556 8.04433C11.8778 11.8282 19.1444 28.8009 19.1556 28.8228C20.4444 31.8739 22.7778 30.8569 23.3444 33.3831C23.4778 33.9955 23.4889 34.258 23.4889 34.258H23.7444C23.7444 34.258 23.7444 33.9955 23.8889 33.3831C24.4556 30.8678 26.7889 31.8739 28.0778 28.8228C28.0889 28.8009 35.3556 11.8173 36.9778 8.04433C36.5222 7.68344 36.0667 7.33349 35.5778 7.00541L28.2222 24.7983C28.2222 27.4667 26.9778 30.4632 23.6333 31.2287H23.6111ZM23.6111 25.8591C22.1889 25.542 20.4222 24.164 20.1889 22.3705C20.1111 21.6925 20.0444 21.5066 20.1444 20.1505L13.6889 5.78057C13.1667 6.05397 12.6667 6.36018 12.1667 6.67733C14.1 10.9424 20 23.9781 20 24C20.9333 25.9357 22.5667 25.9685 23.1333 27.1277C23.4778 27.8057 23.5 28.4182 23.5111 28.4728H23.7222C23.7222 28.4291 23.7667 27.8167 24.1 27.1277C24.6667 25.9794 26.3111 25.9357 27.2333 24C27.2333 23.9891 33.1444 10.9424 35.0667 6.67733C34.5778 6.36018 34.0667 6.06491 33.5444 5.78057L27.1 20.1615C27.2 21.5066 27.1333 21.7034 27.0444 22.3815C26.8111 24.164 25.0444 25.5529 23.6333 25.8701H23.6111V25.8591ZM23.7 23.4204L23.8 22.633C24.2111 20.8067 25.5556 21.0363 26.4778 19.2538C26.4778 19.2428 26.4889 19.2319 26.4889 19.2319C26.5111 19.1663 31.0778 9.5207 32.9889 5.49624C30.1667 4.10736 26.9889 3.31997 23.6222 3.31997C20.2556 3.31997 17.0778 4.10736 14.2444 5.49624C16.1444 9.5207 20.7111 19.1663 20.7444 19.2319L20.7556 19.2538C21.6778 21.0363 23.0222 20.8176 23.4333 22.633L23.5333 23.4204H23.7ZM44.6333 24C44.6333 17.8211 41.8667 12.2766 37.5 8.48177L29.0778 29.5336C29.6333 32.9785 28.6 35.7344 26.0889 36.5546C24.4556 37.0904 24.3667 37.8997 24.3667 40.2947C24.3667 40.4259 24.3667 40.1088 24.3667 40.579C24.3667 42.285 24.5 43.7395 24.6222 44.6472C35.7444 44.1442 44.6333 35.0782 44.6333 24ZM9.25556 30.1132C9.25556 30.1132 9.56667 30.7585 9.82222 31.2287C10.0778 31.688 10.4111 32.2458 10.4111 32.2458L9.85556 32.5629C9.85556 32.5629 9.43333 31.8739 9.04445 31.0756C8.93333 31.1303 8.27778 31.4693 8.16667 31.524C8.23333 31.6443 8.91111 32.9347 8.91111 32.9347L8.34445 33.2519C8.34445 33.2519 7.65556 31.9286 7.6 31.8193C7.47778 31.8739 6.04444 32.6067 6.04444 32.6067L5.7 31.9396L9.21111 30.146L9.25556 30.1132ZM11.4667 33.6456L11.9556 34.2252L8.88889 36.7514L8.38889 36.1718L11.4333 33.6674L11.4667 33.6456ZM14.3111 36.2921L14.9222 36.7186L14.1333 40.8852L13.4333 40.4915C13.4333 40.4915 13.6111 39.6385 13.6333 39.562C13.6 39.5401 13.1889 39.2995 12.8 39.0261C12.4 38.7418 12.0111 38.4246 11.9778 38.4028C11.9 38.4465 11.1333 38.8949 11.1333 38.8949L10.5333 38.3918L14.2778 36.314L14.3111 36.2921ZM12.5333 38.0637C12.6 38.1184 12.8667 38.3262 13.1333 38.523C13.4111 38.709 13.6778 38.8839 13.7556 38.9277C13.8 38.7527 14.0778 37.3857 14.1333 37.1342C13.9111 37.2545 12.7 37.9653 12.5333 38.0637ZM16.8444 37.8231C16.8444 37.8231 17.4889 38.1403 18.4111 38.4465C19.0444 38.6652 19.5667 38.8293 20.1 38.9386L19.9222 39.5401C19.9222 39.5401 19.4222 39.4526 18.6111 39.212C18.5667 39.3433 17.5111 42.3069 17.5111 42.3069L16.7889 42.0554C16.7889 42.0554 17.8444 39.0808 17.8889 38.9496C17.1333 38.6762 16.6111 38.3918 16.6111 38.3918L16.8444 37.8231ZM29.4778 38.6215C29.7444 38.7527 29.9333 38.9933 30.0333 39.3433C30.0778 39.4854 30.1 39.6276 30.1 39.7588C30.1 40.3056 29.7111 40.7431 29 40.9618C29 40.9618 28.6444 41.0711 28.5333 41.104C28.5778 41.2243 29 42.5584 29 42.5584L28.3 42.7334L27.1111 38.9386L28.1778 38.6105C28.7111 38.4465 29.1444 38.4574 29.4778 38.6215ZM27.9889 39.3323C28.0222 39.4526 28.3222 40.3712 28.3556 40.4915C28.5 40.4478 28.8222 40.3494 28.8222 40.3494C28.9333 40.3166 29.1778 40.2181 29.3 39.9994C29.3444 39.9229 29.3556 39.8463 29.3556 39.7588C29.3556 39.6932 29.3444 39.6276 29.3222 39.551C29.2778 39.4198 29.1889 39.3104 29.0667 39.2448C28.8556 39.1355 28.5556 39.1573 28.3778 39.212C28.3778 39.212 28.0889 39.2995 27.9889 39.3323ZM31.8556 36.9701L35.3222 39.4745L34.7111 39.901C34.7111 39.901 34.0111 39.3761 33.9444 39.3323C33.9 39.3542 33.5444 39.6057 33.1556 39.8244C32.7889 40.0432 32.4 40.2291 32.3556 40.2509C32.3778 40.3384 32.5111 41.1805 32.5111 41.1805L31.8444 41.4867L31.2667 37.2982L31.8556 36.9701ZM32.2556 39.6167C32.3556 39.5729 32.6333 39.4198 32.9 39.2667C33.1333 39.1245 33.3333 39.0042 33.4222 38.9277C33.2778 38.8183 32.2 38.0091 31.9778 37.845C32.0222 38.1184 32.2333 39.4417 32.2556 39.6167ZM35.8222 33.5253L38.8444 36.1827L38.3 36.8061C38.3 36.8061 35.4667 35.9859 35.0333 35.8765C35.3556 36.1718 37.1111 37.9981 37.1111 37.9981L36.5778 38.4684L33.7222 35.6141L34.3889 35.0235C34.3889 35.0235 37.1222 35.8218 37.5556 35.9421C37.2333 35.6469 35.3444 34.0502 35.3444 34.0502L35.8222 33.5253ZM37.2 31.5349L40.7 33.5362L40.3444 34.1377L36.8222 32.1364L37.2 31.5349ZM38.7222 28.2322L39.3222 28.5385L39.2667 28.6041C39.0667 28.8337 38.9889 28.954 38.8889 29.2165C38.8444 29.3368 38.7889 29.5664 38.8778 29.7414C38.9222 29.8289 39 29.8945 39.1222 29.9383C39.3889 30.0258 39.6222 29.7961 39.8889 29.5336C40.2556 29.1618 40.7222 28.7025 41.4556 28.954C42.2111 29.2056 42.4667 29.8617 42.1556 30.7585C42.0667 31.0319 41.8889 31.2615 41.7333 31.4802L41.7 31.524L41.0778 31.2397L41.1444 31.1631C41.2222 31.0756 41.4778 30.7803 41.5778 30.4851C41.6778 30.2226 41.6667 29.7852 41.2556 29.6539C40.9222 29.5446 40.6667 29.7961 40.3778 30.0914C40.0222 30.4632 39.6111 30.8678 38.9444 30.6491C38.6444 30.5507 38.4333 30.3648 38.3 30.1242C38.1444 29.8289 38.1444 29.4461 38.2889 29.0415C38.3778 28.7681 38.5333 28.4947 38.7 28.276L38.7222 28.2322Z" fill="#6591C4"/>
<path d="M55.989 5.63843H60.689V6.97262H57.689V9.46604H60.5556V10.8002H57.689V14.7919H55.9778V5.63843H55.989Z" fill="#6591C4"/>
<path d="M64.4223 7.93497C65.8223 7.93497 67.4334 8.65674 67.4334 11.4126C67.4334 14.2451 65.8223 14.9012 64.4223 14.9012C63.0223 14.9012 61.4001 14.2451 61.4001 11.4126C61.4001 8.65674 63.0223 7.93497 64.4223 7.93497ZM64.4223 13.742C65.4889 13.742 65.7334 12.539 65.7334 11.4126C65.7334 10.2862 65.4889 9.09419 64.4223 9.09419C63.3556 9.09419 63.1001 10.2862 63.1001 11.4126C63.1001 12.539 63.3556 13.742 64.4223 13.742Z" fill="#6591C4"/>
<path d="M71.5778 7.93497C72.9778 7.93497 74.5889 8.65674 74.5889 11.4126C74.5889 14.2451 72.9778 14.9012 71.5778 14.9012C70.1778 14.9012 68.5555 14.2451 68.5555 11.4126C68.5555 8.65674 70.1778 7.93497 71.5778 7.93497ZM71.5778 13.742C72.6444 13.742 72.8889 12.539 72.8889 11.4126C72.8889 10.2862 72.6444 9.09419 71.5778 9.09419C70.5111 9.09419 70.2555 10.2862 70.2555 11.4126C70.2555 12.539 70.5111 13.742 71.5778 13.742Z" fill="#6591C4"/>
<path d="M81.5333 4.96039V13.6436C81.5333 14.1248 81.5445 14.5513 81.5889 14.8028H80.0445C80.0222 14.606 79.9889 14.2123 79.9889 13.753H79.9445C79.6778 14.3326 79.1889 14.9122 78.1222 14.9122C76.4111 14.9122 75.7111 13.3155 75.7111 11.4345C75.7111 9.23638 76.6 7.94592 78.0778 7.94592C79.0667 7.94592 79.6111 8.49273 79.8556 9.01766H79.8778V4.96039H81.5333ZM78.5667 13.6983C79.5445 13.6983 79.8667 12.6594 79.8667 11.3908C79.8667 10.0784 79.4889 9.12702 78.5889 9.12702C77.6667 9.12702 77.3556 10.0019 77.3556 11.358C77.3556 12.9109 77.6111 13.6983 78.5667 13.6983Z" fill="#6591C4"/>
<path d="M86.8444 8.42707C87.3111 8.21928 87.9667 7.92401 89.0222 7.92401C91.1556 7.92401 91.6444 8.952 91.6444 10.6361V13.5889C91.6444 14.0701 91.7 14.5184 91.7333 14.7809H90.2444C90.1667 14.5184 90.1555 14.1904 90.1555 13.8623H90.1333C89.7222 14.4091 89.2 14.8903 88.2111 14.8903C87.1444 14.8903 86.1555 14.1685 86.1555 12.9108C86.1555 11.0736 87.6778 10.6143 89.7667 10.6143H90.1V10.3737C90.1 9.70658 89.7667 9.08323 88.8222 9.08323C88 9.08323 87.2667 9.47693 86.9444 9.73939L86.8444 8.42707ZM90.0889 11.4892H89.9444C88.5333 11.4892 87.6889 11.7735 87.6889 12.7577C87.6889 13.3702 88.1 13.7967 88.7444 13.7967C89.7333 13.7967 90.0889 13.0749 90.0889 11.8719V11.4892Z" fill="#6591C4"/>
<path d="M93.1667 9.14887C93.1667 8.7333 93.1556 8.3396 93.1111 8.03339H94.6556C94.6667 8.37241 94.7111 8.7333 94.7111 9.07231H94.7334C94.9778 8.66768 95.4445 7.93497 96.5556 7.93497C98.1111 7.93497 98.5778 9.07231 98.5778 10.4393V14.7919H96.9223V10.7346C96.9223 9.69567 96.6556 9.26916 95.9778 9.26916C95.1111 9.26916 94.8111 9.99094 94.8111 10.8549V14.7919H93.1556V9.14887H93.1667Z" fill="#6591C4"/>
<path d="M105.711 4.96039V13.6436C105.711 14.1248 105.722 14.5513 105.767 14.8028H104.222C104.2 14.606 104.167 14.2123 104.167 13.753H104.122C103.856 14.3326 103.367 14.9122 102.3 14.9122C100.589 14.9122 99.8889 13.3155 99.8889 11.4345C99.8889 9.23638 100.778 7.94592 102.256 7.94592C103.244 7.94592 103.789 8.49273 104.033 9.01766H104.056V4.96039H105.711ZM102.756 13.6983C103.733 13.6983 104.056 12.6594 104.056 11.3908C104.056 10.0784 103.678 9.12702 102.778 9.12702C101.856 9.12702 101.544 10.0019 101.544 11.358C101.544 12.9109 101.8 13.6983 102.756 13.6983Z" fill="#6591C4"/>
<path d="M114.867 12.5828H111.667L111 14.7919H109.289L112.411 5.63843H114.278L117.278 14.7919H115.522L114.867 12.5828ZM114.511 11.3033L113.333 7.0273H113.311L112.033 11.3033H114.511Z" fill="#6591C4"/>
<path d="M118.311 15.8417C118.7 16.0495 119.467 16.4213 120.333 16.4213C121.889 16.4213 122.144 15.3605 122.144 14.2997V13.6545H122.122C121.856 14.1794 121.389 14.7919 120.311 14.7919C119.356 14.7919 117.911 14.1576 117.911 11.4345C117.911 9.57537 118.589 7.93497 120.389 7.93497C121.389 7.93497 121.856 8.50364 122.2 9.09419H122.256C122.256 8.74423 122.3 8.39428 122.311 8.04433H123.8C123.778 8.39428 123.744 8.75517 123.744 9.10512V14.092C123.744 16.2026 123.089 17.7118 120.578 17.7118C119.489 17.7118 118.622 17.4384 118.222 17.2962L118.311 15.8417ZM120.7 13.5998C121.744 13.5998 122.156 12.8671 122.156 11.3361C122.156 9.92532 121.611 9.1598 120.822 9.17074C119.956 9.18167 119.622 9.96907 119.622 11.347C119.622 12.9327 120.144 13.5998 120.7 13.5998Z" fill="#6591C4"/>
<path d="M125.311 9.14887C125.311 8.7333 125.3 8.3396 125.256 8.03339H126.744C126.756 8.43802 126.8 8.86453 126.8 9.26916H126.822C127.022 8.74423 127.544 7.93497 128.567 7.93497C128.678 7.93497 128.756 7.95684 128.844 7.97871V9.49882C128.7 9.45508 128.556 9.4332 128.378 9.4332C127.7 9.4332 126.956 9.83784 126.956 11.0955V14.7919H125.3V9.14887H125.311Z" fill="#6591C4"/>
<path d="M130.078 5.16815H131.789V6.76481H130.078V5.16815ZM130.1 8.03339H131.756V14.7919H130.1V8.03339Z" fill="#6591C4"/>
<path d="M138.067 14.6169C137.678 14.759 137.111 14.8903 136.444 14.8903C134.178 14.8903 133.222 13.3264 133.222 11.4126C133.222 9.48786 134.233 7.92401 136.544 7.92401C137.067 7.92401 137.678 8.07712 137.989 8.19741L137.878 9.4988C137.589 9.35663 137.167 9.17072 136.722 9.17072C135.467 9.17072 134.922 10.0019 134.922 11.4345C134.922 12.6921 135.533 13.6654 136.8 13.6654C137.2 13.6654 137.744 13.4795 137.978 13.3373L138.067 14.6169Z" fill="#6591C4"/>
<path d="M144.5 13.6764C144.5 14.0919 144.511 14.4856 144.556 14.7919H143.011C143 14.4528 142.956 14.0919 142.956 13.7529L142.911 13.742L142.922 13.7529C142.6 14.256 142.178 14.8903 141.1 14.8903C139.544 14.8903 139.078 13.7529 139.078 12.3859V8.03339H140.733V12.0907C140.733 13.1296 141.022 13.5561 141.722 13.5561C142.6 13.5561 142.856 12.7687 142.856 11.9047V8.03339H144.511V13.6764H144.5Z" fill="#6591C4"/>
<path d="M146.156 4.96039H147.811V14.7919H146.156V4.96039Z" fill="#6591C4"/>
<path d="M150.067 6.64451L151.722 6.14145V8.03338H153.089V9.22541H151.722V12.7249C151.722 13.4467 151.989 13.6545 152.467 13.6545C152.756 13.6545 152.978 13.5779 153.089 13.5123V14.6716C152.833 14.7918 152.478 14.8903 151.978 14.8903C150.756 14.8903 150.056 14.3435 150.056 12.9218V9.22541H148.967V8.03338H150.056V6.64451H150.067Z" fill="#6591C4"/>
<path d="M159.567 13.6764C159.567 14.0919 159.578 14.4856 159.622 14.7919H158.078C158.067 14.4528 158.022 14.0919 158.022 13.7529L157.978 13.742L157.989 13.7529C157.667 14.256 157.244 14.8903 156.167 14.8903C154.611 14.8903 154.144 13.7529 154.144 12.3859V8.03339H155.8V12.0907C155.8 13.1296 156.089 13.5561 156.789 13.5561C157.667 13.5561 157.922 12.7687 157.922 11.9047V8.03339H159.578V13.6764H159.567Z" fill="#6591C4"/>
<path d="M161.111 9.14887C161.111 8.7333 161.1 8.3396 161.056 8.03339H162.544C162.556 8.43802 162.6 8.86453 162.6 9.26916H162.622C162.822 8.74423 163.344 7.93497 164.367 7.93497C164.478 7.93497 164.556 7.95684 164.644 7.97871V9.49882C164.5 9.45508 164.356 9.4332 164.178 9.4332C163.5 9.4332 162.756 9.83784 162.756 11.0955V14.7919H161.111V9.14887Z" fill="#6591C4"/>
<path d="M170.644 14.4638C170.3 14.606 169.578 14.9012 168.589 14.9012C166.378 14.9012 165.422 13.3374 165.422 11.522C165.422 9.49884 166.5 7.94592 168.244 7.94592C169.722 7.94592 170.989 8.79893 170.989 11.5548V11.872H167.022C167.022 13.0202 167.489 13.7201 168.767 13.7201C169.778 13.7201 170.256 13.4139 170.567 13.1952L170.644 14.4638ZM169.4 10.833C169.4 9.64101 169 9.03953 168.256 9.03953C167.389 9.03953 167.033 9.94722 167.033 10.833H169.4Z" fill="#6591C4"/>
<path d="M59.3223 20.3255C61.2556 20.3255 63.0223 21.7362 63.0223 25.0389C63.0223 28.3307 61.2556 29.7524 59.3223 29.7524C57.3889 29.7524 55.6223 28.3416 55.6223 25.0389C55.6223 21.7472 57.3889 20.3255 59.3223 20.3255ZM59.3223 28.4619C60.4 28.4619 61.2667 27.5542 61.2667 25.0389C61.2667 22.5236 60.4 21.616 59.3223 21.616C58.2445 21.616 57.3778 22.5236 57.3778 25.0389C57.3778 27.5542 58.2445 28.4619 59.3223 28.4619Z" fill="#6591C4"/>
<path d="M64.4334 23.9672C64.4334 23.5516 64.4223 23.1579 64.3778 22.8517H65.8667C65.8778 23.2564 65.9223 23.6829 65.9223 24.0875H65.9445C66.1445 23.5626 66.6667 22.7533 67.6889 22.7533C67.8 22.7533 67.8778 22.7752 67.9667 22.797V24.3171C67.8223 24.2734 67.6778 24.2515 67.5 24.2515C66.8223 24.2515 66.0778 24.6562 66.0778 25.9138V29.6102H64.4223V23.9672H64.4334Z" fill="#6591C4"/>
<path d="M69.1556 30.66C69.5445 30.8678 70.3111 31.2397 71.1778 31.2397C72.7334 31.2397 72.9889 30.1789 72.9889 29.1181V28.4728H72.9667C72.7 28.9978 72.2334 29.6102 71.1556 29.6102C70.2 29.6102 68.7556 28.9759 68.7556 26.2528C68.7556 24.3937 69.4334 22.7533 71.2334 22.7533C72.2334 22.7533 72.7 23.322 73.0445 23.9125H73.1C73.1 23.5626 73.1445 23.2126 73.1556 22.8627H74.6445C74.6223 23.2126 74.5889 23.5735 74.5889 23.9235V28.9103C74.5889 31.0209 73.9334 32.5301 71.4222 32.5301C70.3334 32.5301 69.4667 32.2567 69.0667 32.1145L69.1556 30.66ZM71.5334 28.4182C72.5778 28.4182 72.9889 27.6854 72.9889 26.1435C72.9889 24.7327 72.4445 23.9672 71.6556 23.9781C70.7889 23.9891 70.4556 24.7765 70.4556 26.1544C70.4556 27.7511 70.9778 28.4182 71.5334 28.4182Z" fill="#6591C4"/>
<path d="M76.4223 23.2454C76.8889 23.0376 77.5445 22.7423 78.6 22.7423C80.7334 22.7423 81.2223 23.7703 81.2223 25.4545V28.4072C81.2223 28.8884 81.2778 29.3368 81.3111 29.5992H79.8222C79.7445 29.3368 79.7334 29.0087 79.7334 28.6806H79.7111C79.3 29.2274 78.7778 29.7086 77.7889 29.7086C76.7223 29.7086 75.7334 28.9868 75.7334 27.7292C75.7334 25.8919 77.2556 25.4326 79.3445 25.4326H79.6778V25.1811C79.6778 24.514 79.3445 23.8906 78.4 23.8906C77.5778 23.8906 76.8445 24.2843 76.5223 24.5468L76.4223 23.2454ZM79.6778 26.3075H79.5334C78.1223 26.3075 77.2778 26.5918 77.2778 27.5761C77.2778 28.1885 77.6889 28.615 78.3334 28.615C79.3223 28.615 79.6778 27.8932 79.6778 26.6902V26.3075Z" fill="#6591C4"/>
<path d="M82.7555 23.9672C82.7555 23.5516 82.7444 23.1579 82.7 22.8517H84.2444C84.2555 23.1907 84.3 23.5516 84.3 23.8906H84.3222C84.5666 23.486 85.0333 22.7533 86.1444 22.7533C87.7 22.7533 88.1666 23.8906 88.1666 25.2576V29.6102H86.5111V25.5529C86.5111 24.514 86.2444 24.0875 85.5667 24.0875C84.7 24.0875 84.4 24.8093 84.4 25.6732V29.6102H82.7444V23.9672H82.7555Z" fill="#6591C4"/>
<path d="M89.8 19.9865H91.5V21.5831H89.8V19.9865ZM89.8222 22.8517H91.4778V29.6102H89.8222V22.8517Z" fill="#6591C4"/>
<path d="M92.7556 28.2103L95.689 24.0875H92.8445V22.8517H97.3334V24.2406L94.4556 28.3744H97.4223V29.6102H92.7445V28.2103H92.7556Z" fill="#6591C4"/>
<path d="M98.8778 23.2454C99.3445 23.0376 100 22.7423 101.056 22.7423C103.189 22.7423 103.678 23.7703 103.678 25.4545V28.4072C103.678 28.8884 103.733 29.3368 103.767 29.5992H102.278C102.2 29.3368 102.189 29.0087 102.189 28.6806H102.167C101.756 29.2274 101.233 29.7086 100.244 29.7086C99.1778 29.7086 98.1889 28.9868 98.1889 27.7292C98.1889 25.8919 99.7111 25.4326 101.8 25.4326H102.133V25.1811C102.133 24.514 101.8 23.8906 100.856 23.8906C100.033 23.8906 99.3 24.2843 98.9778 24.5468L98.8778 23.2454ZM102.133 26.3075H101.989C100.578 26.3075 99.7333 26.5918 99.7333 27.5761C99.7333 28.1885 100.144 28.615 100.789 28.615C101.778 28.615 102.133 27.8932 102.133 26.6902V26.3075Z" fill="#6591C4"/>
<path d="M105.822 21.4628L107.478 20.9598V22.8517H108.844V24.0437H107.478V27.5433C107.478 28.265 107.744 28.4728 108.222 28.4728C108.511 28.4728 108.733 28.3963 108.844 28.3307V29.4899C108.589 29.6102 108.233 29.7086 107.733 29.7086C106.511 29.7086 105.811 29.1618 105.811 27.7401V24.0437H104.722V22.8517H105.811V21.4628H105.822Z" fill="#6591C4"/>
<path d="M110.033 19.9865H111.733V21.5831H110.033V19.9865ZM110.056 22.8517H111.711V29.6102H110.056V22.8517Z" fill="#6591C4"/>
<path d="M116.2 22.7533C117.6 22.7533 119.211 23.4751 119.211 26.231C119.211 29.0634 117.6 29.7195 116.2 29.7195C114.8 29.7195 113.178 29.0634 113.178 26.231C113.178 23.4751 114.8 22.7533 116.2 22.7533ZM116.2 28.5603C117.267 28.5603 117.511 27.3574 117.511 26.231C117.511 25.1045 117.267 23.9125 116.2 23.9125C115.133 23.9125 114.878 25.1045 114.878 26.231C114.878 27.3574 115.133 28.5603 116.2 28.5603Z" fill="#6591C4"/>
<path d="M120.511 23.9672C120.511 23.5516 120.5 23.1579 120.456 22.8517H122C122.011 23.1907 122.056 23.5516 122.056 23.8906H122.078C122.322 23.486 122.789 22.7533 123.9 22.7533C125.456 22.7533 125.922 23.8906 125.922 25.2576V29.6102H124.267V25.5529C124.267 24.514 124 24.0875 123.322 24.0875C122.456 24.0875 122.156 24.8093 122.156 25.6732V29.6102H120.5V23.9672H120.511Z" fill="#6591C4"/>
<path d="M133.722 22.7533C135.122 22.7533 136.733 23.4751 136.733 26.231C136.733 29.0634 135.122 29.7195 133.722 29.7195C132.322 29.7195 130.7 29.0634 130.7 26.231C130.7 23.4751 132.322 22.7533 133.722 22.7533ZM133.722 28.5603C134.789 28.5603 135.033 27.3574 135.033 26.231C135.033 25.1045 134.789 23.9125 133.722 23.9125C132.656 23.9125 132.4 25.1045 132.4 26.231C132.411 27.3574 132.656 28.5603 133.722 28.5603Z" fill="#6591C4"/>
<path d="M138.578 24.0547H137.433V22.8627H138.578V21.4847C138.578 20.5114 139.044 19.6256 140.544 19.6256C140.989 19.6256 141.411 19.7131 141.733 19.7787L141.667 20.9598C141.467 20.9051 141.256 20.8504 141.011 20.8504C140.533 20.8504 140.222 21.1785 140.222 21.6925V22.8627H141.478V24.0547H140.222V29.6102H138.567V24.0547H138.578Z" fill="#6591C4"/>
<path d="M146.556 21.4628L148.211 20.9598V22.8517H149.578V24.0437H148.211V27.5433C148.211 28.265 148.478 28.4728 148.956 28.4728C149.244 28.4728 149.467 28.3963 149.578 28.3307V29.4899C149.322 29.6102 148.967 29.7086 148.467 29.7086C147.244 29.7086 146.544 29.1618 146.544 27.7401V24.0437H145.456V22.8517H146.544V21.4628H146.556Z" fill="#6591C4"/>
<path d="M150.622 19.7787H152.278V23.7266H152.322C152.611 23.311 153 22.7533 154.033 22.7533C155.589 22.7533 156.056 23.8906 156.056 25.2576V29.6102H154.4V25.5529C154.4 24.514 154.133 24.0875 153.456 24.0875C152.589 24.0875 152.289 24.8093 152.289 25.6732V29.6102H150.633V19.7787H150.622Z" fill="#6591C4"/>
<path d="M162.578 29.2821C162.233 29.4243 161.511 29.7195 160.522 29.7195C158.311 29.7195 157.356 28.1557 157.356 26.3403C157.356 24.3171 158.433 22.7642 160.178 22.7642C161.656 22.7642 162.922 23.6172 162.922 26.3731V26.6903H158.956C158.956 27.8495 159.422 28.5384 160.7 28.5384C161.711 28.5384 162.189 28.2322 162.5 28.0135L162.578 29.2821ZM161.322 25.6513C161.322 24.4593 160.922 23.8578 160.178 23.8578C159.311 23.8578 158.956 24.7655 158.956 25.6513H161.322Z" fill="#6591C4"/>
<path d="M57.6222 35.275V41.2024C57.6222 42.7225 58.0889 43.2255 59.0889 43.2255C60.0667 43.2255 60.5445 42.7225 60.5445 41.2024V35.275H62.2556V41.2024C62.2556 43.6192 60.8445 44.5597 59.1 44.5597C57.3445 44.5597 55.9333 43.6192 55.9333 41.2024V35.275H57.6222Z" fill="#6591C4"/>
<path d="M63.8889 38.7855C63.8889 38.3699 63.8778 37.9762 63.8333 37.67H65.3778C65.3889 38.009 65.4333 38.3699 65.4333 38.7089H65.4556C65.7 38.3043 66.1667 37.5716 67.2778 37.5716C68.8333 37.5716 69.3 38.7089 69.3 40.0759V44.4285H67.6667V40.3712C67.6667 39.3323 67.4 38.9058 66.7222 38.9058C65.8556 38.9058 65.5556 39.6276 65.5556 40.4915V44.4285H63.8889V38.7855Z" fill="#6591C4"/>
<path d="M70.9333 34.8048H72.6445V36.4014H70.9333V34.8048ZM70.9667 37.681H72.6222V44.4394H70.9667V37.681Z" fill="#6591C4"/>
<path d="M74.8778 36.2812L76.5334 35.7781V37.6701H77.9V38.8621H76.5334V42.3616C76.5334 43.0834 76.8 43.2912 77.2778 43.2912C77.5667 43.2912 77.7889 43.2146 77.9 43.149V44.3082C77.6445 44.4285 77.2889 44.527 76.7889 44.527C75.5667 44.527 74.8667 43.9802 74.8667 42.5585V38.8621H73.7778V37.6701H74.8667V36.2812H74.8778Z" fill="#6591C4"/>
<path d="M83.9889 44.1004C83.6445 44.2426 82.9222 44.5378 81.9334 44.5378C79.7222 44.5378 78.7667 42.974 78.7667 41.1586C78.7667 39.1354 79.8445 37.5825 81.5889 37.5825C83.0667 37.5825 84.3334 38.4355 84.3334 41.1914V41.5086H80.3667C80.3667 42.6678 80.8334 43.3567 82.1111 43.3567C83.1223 43.3567 83.6 43.0505 83.9111 42.8318L83.9889 44.1004ZM82.7445 40.4696C82.7445 39.2776 82.3445 38.6761 81.6 38.6761C80.7334 38.6761 80.3778 39.5838 80.3778 40.4696H82.7445Z" fill="#6591C4"/>
<path d="M91.2556 34.597V43.2802C91.2556 43.7614 91.2667 44.1879 91.3112 44.4394H89.7667C89.7445 44.2426 89.7112 43.8489 89.7112 43.3896H89.6667C89.4 43.9692 88.9112 44.5488 87.8445 44.5488C86.1334 44.5488 85.4334 42.9521 85.4334 41.0711C85.4334 38.873 86.3223 37.5825 87.8 37.5825C88.7889 37.5825 89.3334 38.1293 89.5778 38.6543H89.6V34.597H91.2556ZM88.2889 43.3458C89.2667 43.3458 89.5889 42.3069 89.5889 41.0383C89.5889 39.726 89.2112 38.7745 88.3112 38.7745C87.3889 38.7745 87.0778 39.6494 87.0778 41.0055C87.0778 42.5584 87.3334 43.3458 88.2889 43.3458Z" fill="#6591C4"/>
<path d="M96.4556 35.275H98.4778L101.567 42.46H101.589V35.275H103.133V44.4285H101.111L98.0334 37.2982H98V44.4285H96.4556V35.275Z" fill="#6591C4"/>
<path d="M105.189 38.0638C105.656 37.856 106.311 37.5607 107.367 37.5607C109.5 37.5607 109.989 38.5887 109.989 40.2728V43.2256C109.989 43.7067 110.044 44.1551 110.078 44.4176H108.589C108.511 44.1551 108.5 43.827 108.5 43.499H108.478C108.067 44.0458 107.544 44.5269 106.556 44.5269C105.489 44.5269 104.5 43.8052 104.5 42.5475C104.5 40.7103 106.022 40.251 108.111 40.251H108.444V40.0104C108.444 39.3433 108.111 38.7199 107.167 38.7199C106.344 38.7199 105.611 39.1136 105.289 39.3761L105.189 38.0638ZM108.444 41.1258H108.3C106.889 41.1258 106.044 41.4102 106.044 42.3944C106.044 43.0068 106.456 43.4333 107.1 43.4333C108.089 43.4333 108.444 42.7116 108.444 41.5086V41.1258Z" fill="#6591C4"/>
<path d="M112.133 36.2812L113.789 35.7781V37.6701H115.156V38.8621H113.789V42.3616C113.789 43.0834 114.056 43.2912 114.533 43.2912C114.822 43.2912 115.044 43.2146 115.156 43.149V44.3082C114.9 44.4285 114.544 44.527 114.044 44.527C112.822 44.527 112.122 43.9802 112.122 42.5585V38.8621H111.033V37.6701H112.122V36.2812H112.133Z" fill="#6591C4"/>
<path d="M116.344 34.8048H118.056V36.4014H116.344V34.8048ZM116.367 37.681H118.022V44.4394H116.367V37.681Z" fill="#6591C4"/>
<path d="M122.511 37.5716C123.911 37.5716 125.522 38.2934 125.522 41.0493C125.522 43.8817 123.911 44.5378 122.511 44.5378C121.111 44.5378 119.489 43.8817 119.489 41.0493C119.489 38.2934 121.111 37.5716 122.511 37.5716ZM122.511 43.3786C123.578 43.3786 123.822 42.1757 123.822 41.0493C123.822 39.9228 123.578 38.7308 122.511 38.7308C121.445 38.7308 121.189 39.9228 121.189 41.0493C121.189 42.1757 121.445 43.3786 122.511 43.3786Z" fill="#6591C4"/>
<path d="M126.822 38.7855C126.822 38.3699 126.811 37.9762 126.767 37.67H128.311C128.322 38.009 128.367 38.3699 128.367 38.7089H128.389C128.633 38.3043 129.1 37.5716 130.211 37.5716C131.767 37.5716 132.233 38.7089 132.233 40.0759V44.4285H130.578V40.3712C130.578 39.3323 130.311 38.9058 129.633 38.9058C128.767 38.9058 128.467 39.6276 128.467 40.4915V44.4285H126.811V38.7855H126.822Z" fill="#6591C4"/>
<path d="M133.556 42.8537C133.822 42.9631 134.5 43.3021 135.278 43.3021C135.878 43.3021 136.344 43.1599 136.344 42.635C136.344 42.3725 136.211 42.121 135.611 41.782L134.933 41.3883C134.244 40.9836 133.478 40.5462 133.478 39.4854C133.478 38.5558 134.4 37.5716 135.844 37.5716C136.722 37.5716 137.4 37.7903 137.567 37.845L137.478 39.1026C137.067 38.9495 136.622 38.7964 136.022 38.7964C135.356 38.7964 135.078 39.048 135.078 39.4526C135.078 39.8244 135.367 40.0213 135.856 40.3165L136.667 40.8305C137.522 41.3664 137.944 41.7492 137.944 42.5366C137.944 43.7833 136.878 44.5269 135.389 44.5269C134.533 44.5269 133.833 44.3301 133.478 44.1988L133.556 42.8537Z" fill="#6591C4"/>
</g>
<defs>
<clipPath id="clip0_263_2509">
<rect width="171" height="46.5" fill="white" transform="translate(0 0.75)"/>
</clipPath>
</defs>
</svg>
